<!DOCTYPE svg PUBLIC "-//W3C//DTD SVG 1.1//EN" "http://www.w3.org/Graphics/SVG/1.1/DTD/svg11.dtd">
<!-- Uploaded to: SVG Repo, www.svgrepo.com, Transformed by: SVG Repo Mixer Tools -->
<svg fill="#fb2c36" height="800px" width="800px" version="1.1" id="Layer_1" xmlns="http://www.w3.org/2000/svg" xmlns:xlink="http://www.w3.org/1999/xlink" viewBox="0 0 330 330" xml:space="preserve">
<g id="SVGRepo_bgCarrier" stroke-width="0"/>
<g id="SVGRepo_tracerCarrier" stroke-linecap="round" stroke-linejoin="round"/>
<g id="SVGRepo_iconCarrier"> <g id="XMLID_6_"> <path id="XMLID_7_" d="M165.003,51.977C75.275,51.977,5.55,152.253,2.625,156.522c-3.5,5.109-3.5,11.845,0,16.955 c2.925,4.268,72.65,104.546,162.378,104.546c89.712,0,159.446-100.277,162.371-104.545c3.501-5.11,3.501-11.846,0-16.956 C324.449,152.253,254.715,51.977,165.003,51.977z M165.003,206.655c-23.015,0-41.67-18.627-41.67-41.655 c0-23.027,18.655-41.654,41.67-41.654c23,0,41.669,18.627,41.669,41.654C206.672,188.028,188.003,206.655,165.003,206.655z"/> </g> </g>
</svg>